<svg id="Слой_1" data-name="Слой 1" xmlns="http://www.w3.org/2000/svg" xmlns:xlink="http://www.w3.org/1999/xlink" viewBox="0 0 1338.22 285.38"><defs><clipPath id="clip-path" transform="translate(-19.24 -1.5)"><rect x="1067" y="34.68" width="88.79" height="88.79" fill="none"/></clipPath><clipPath id="clip-path-2" transform="translate(-19.24 -1.5)"><path d="M1211.55,34.68h0a44.4,44.4,0,0,1,44.4,44.4h0a44.39,44.39,0,0,1-44.4,44.39h0a44.38,44.38,0,0,1-44.39-44.39h0A44.39,44.39,0,0,1,1211.55,34.68Z" fill="none"/></clipPath><clipPath id="clip-path-3" transform="translate(-19.24 -1.5)"><rect x="1268.38" y="34.68" width="88.79" height="88.79" fill="none"/></clipPath></defs><title>logo2</title><g clip-path="url(#clip-path)"><path d="M1086.8,52l-.5-.51-.52.51.52.51Zm0,0-.5.51h0l.06.05.19.18c.17.16.43.37.75.63a24.4,24.4,0,0,0,2.71,1.9,18,18,0,0,0,9.07,2.78,23.13,23.13,0,0,0,9-1.63,9.08,9.08,0,0,0,2.86-1.86,3.71,3.71,0,0,0,1.17-2.58,3.74,3.74,0,0,0-1.17-2.58,9.26,9.26,0,0,0-2.86-1.86,23.32,23.32,0,0,0-9-1.62,17.89,17.89,0,0,0-9.07,2.78,26,26,0,0,0-2.71,1.89l-.75.63-.19.18-.06,0v0h0Zm52.6,26h0c0-5.1-1.3-8-3-10.38a15.18,15.18,0,0,0-12.58-6.7,14,14,0,0,0-2.22.16l-.23,0,0,0a17.63,17.63,0,0,0-1.84.42A7.8,7.8,0,0,0,1118,62c-.31.1-.64.22-1,.35h0l-1,.38a14.5,14.5,0,0,1-4.52,1h-.08a14.2,14.2,0,0,1-4.5-1l-1-.36-1-.37a8,8,0,0,0-1.57-.41,16,16,0,0,0-1.89-.42l-.07,0a.73.73,0,0,0-.21,0h0a20.16,20.16,0,0,0-2.16-.15,15.18,15.18,0,0,0-12.59,6.7A17,17,0,0,0,1083.35,78h0a42.06,42.06,0,0,0,5.73,20.8c3.78,6.22,9.45,10.91,17,11h0a5.85,5.85,0,0,0,2-.32l.77-.2.06,0c.26-.07.52-.15.79-.21a8,8,0,0,1,1.76-.28,10.23,10.23,0,0,1,2.52.48l.83.23a5.89,5.89,0,0,0,2,.32h0c7.5-.12,13.18-4.81,17-11A42.11,42.11,0,0,0,1139.4,78Zm-17.81-16.9Zm-10.19-25.7a43.71,43.71,0,1,1-43.69,43.71A43.68,43.68,0,0,1,1111.4,35.39Z" transform="translate(-19.24 -1.5)" fill="#83a75b" stroke="#83a75b" stroke-width="2"/></g><g clip-path="url(#clip-path-2)"><path d="M1209.65,94.79l0,0,0,0h0l0,0,.11-.13a4.72,4.72,0,0,1,.43-.38,1.83,1.83,0,0,1,1.21-.44h.1a1.9,1.9,0,0,1,1.23.47,3.53,3.53,0,0,1,.43.39l.11.12,0,0h0l0,0,0,0,21.31,21.29a43.61,43.61,0,0,1-46.42,0Zm-8.77-7.13h0l-21.24,21.18a43.49,43.49,0,0,1-11.75-29.76,44.56,44.56,0,0,1,1.28-10.34h30.79l.1,0,.37.08a2.35,2.35,0,0,1,.4.14.48.48,0,0,1,.19.11l0,0,0,0a1.09,1.09,0,0,1,.33.56,1.19,1.19,0,0,1,0,.28.23.23,0,0,1,0,.07V86h0v.08c0,.07,0,.17,0,.28a6,6,0,0,1-.12.68,1.9,1.9,0,0,1-.26.43,1.16,1.16,0,0,1-.13.15l0,0Zm22.29-18.83H1254a41.94,41.94,0,0,1,1.29,10.27,44,44,0,0,1-11.72,29.79l-21.24-21.13h0l0,0-.13-.15a1.9,1.9,0,0,1-.26-.43,6.86,6.86,0,0,1-.12-.68c0-.12,0-.22,0-.29a.25.25,0,0,1,0-.08h0V70.16h0a.28.28,0,0,1,0-.08,1.12,1.12,0,0,1,0-.27,1.05,1.05,0,0,1,.33-.56l.06,0,0,0a1.18,1.18,0,0,1,.53-.23l.35-.06Zm-22-21.07a10.37,10.37,0,1,0,10.39-10.39A10.37,10.37,0,0,0,1201.16,47.76Zm-28.58,11.63a43.61,43.61,0,0,1,77.9,0h-77.9Z" transform="translate(-19.24 -1.5)" fill="#43a0de" stroke="#43a0de" stroke-width="2"/></g><g clip-path="url(#clip-path-3)"><path d="M1336.84,80.34l0,0,0,0a15.06,15.06,0,1,0-24.16-18,15,15,0,1,0-24.11,18l0,0,0,0,.08.08a14.16,14.16,0,0,0,1.2,1.31h0l22.23,24,.5.54,0-.06.1.1.5-.55,22.23-24.08c.41-.41.81-.85,1.19-1.3Zm-24.07-44.95a43.71,43.71,0,1,1-43.68,43.71A43.69,43.69,0,0,1,1312.77,35.39Z" transform="translate(-19.24 -1.5)" fill="#9c4c33" stroke="#9c4c33" stroke-width="2"/></g><text transform="translate(856.26 114)" font-size="110" fill="#5c6269" font-family="HeliosCondBlack">ГОД</text><text transform="translate(0 235.24)" font-size="274.01" fill="#5c6269" font-family="HeliosCondBlack">КУРСК</text><text transform="matrix(0, -0.84, 1, 0, 836.58, 243)" font-size="121.86" fill="#a6c62a" font-family="DINPro, DIN Pro">2020</text><text transform="translate(850.26 218.97)" font-size="110" fill="#5c6269" font-family="HeliosCondBlack">ЗДОРОВЬЯ</text></svg>